<svg xmlns="http://www.w3.org/2000/svg" width="24" height="24" fill="none"><path fill="#54ADFF" d="m5 15.7-.53-.52a.75.75 0 0 0-.22.53H5ZM15.7 5l.54-.53a.75.75 0 0 0-1.06 0l.53.53ZM19 8.3l.53.52c.3-.29.3-.76 0-1.06L19 8.3ZM8.3 19v.75c.2 0 .38-.08.52-.22L8.3 19ZM5 19h-.75c0 .41.34.75.75.75V19Zm6.59-.75a.75.75 0 0 0 0 1.5v-1.5Zm7 1.5a.75.75 0 0 0 0-1.5v1.5ZM5.53 16.24l10.7-10.71-1.05-1.06-10.71 10.7 1.06 1.07Zm9.65-10.71 3.29 3.3 1.06-1.07-3.3-3.29-1.05 1.06Zm3.29 2.23L7.77 18.47l1.05 1.06 10.71-10.7-1.06-1.07ZM8.29 18.25H5v1.5h3.3v-1.5ZM5.75 19v-3.3h-1.5V19h1.5Zm6.96-11L16 11.3l1.06-1.07-3.3-3.29L12.72 8Zm-1.12 11.75h7v-1.5h-7v1.5Z"/></svg>