<svg width="35" height="35" viewBox="0 0 35 35" fill="none" xmlns="http://www.w3.org/2000/svg">
<g id="Group 1000002101">
<path id="Vector" d="M9.32819 18.5172L11.1215 20.8323C11.2774 21.0299 11.5633 21.0582 11.7712 20.8888C11.9532 20.7194 11.9791 20.4088 11.8232 20.183L10.1339 18.009L24.5322 18.009C24.7921 18.009 25 17.7832 25 17.5009C25 17.2185 24.7921 16.9927 24.5322 16.9927L10.1339 16.9927L11.8232 14.8187C11.9791 14.6211 11.9532 14.3106 11.7712 14.1129C11.6933 14.0282 11.5893 14 11.4853 14C11.3554 14 11.2254 14.0565 11.1475 14.1694L9.35418 16.4845C8.88636 17.1056 8.88636 17.9526 9.32819 18.5172Z" fill="#111111" fill-opacity="0.5"/>
<circle id="Ellipse 2743" cx="17.5" cy="17.5" r="17" transform="rotate(180 17.5 17.5)" stroke="#54ADFF"/>
</g>
</svg>
