<svg width="35" height="35" viewBox="0 0 35 35" fill="none" xmlns="http://www.w3.org/2000/svg">
<g id="Group 1000002095">
<path id="Vector" d="M25.3506 16.7316L25.3519 16.7331C25.4656 16.8785 25.5407 17.0533 25.574 17.2399L25.1869 16.7417L23.5067 14.5796C23.4871 14.548 23.4784 14.51 23.4811 14.474C23.4833 14.4454 23.4918 14.427 23.4988 14.4167C23.5157 14.4067 23.529 14.4057 23.5365 14.4064C23.5454 14.4072 23.5523 14.4105 23.559 14.4186L25.3506 16.7316ZM24.8661 17.3972H25.592C25.5955 17.4646 25.5937 17.5328 25.5865 17.6011H24.8661H10.4678C10.4601 17.6011 10.449 17.5988 10.4353 17.584C10.421 17.5684 10.4062 17.54 10.4062 17.4991C10.4062 17.4582 10.421 17.4299 10.4353 17.4143C10.449 17.3995 10.4601 17.3972 10.4678 17.3972H24.8661ZM25.1869 18.2566L25.5543 17.7838C25.5121 17.9531 25.4357 18.1187 25.3228 18.2691L23.5314 20.5818L23.5245 20.5906L23.523 20.5929C23.521 20.5933 23.5182 20.5938 23.5147 20.5938C23.5142 20.5938 23.5137 20.5937 23.5132 20.5937C23.4951 20.5675 23.4836 20.5354 23.4811 20.5031C23.4781 20.4628 23.4897 20.4406 23.4957 20.4329L23.4976 20.4305L25.1869 18.2566Z" fill="#54ADFF" stroke="#54ADFF" stroke-width="0.8125"/>
<circle id="Ellipse 2743" cx="17.5" cy="17.5" r="17" stroke="#54ADFF"/>
</g>
</svg>
